<svg xmlns="http://www.w3.org/2000/svg" width="520" height="300" viewBox="0 0 520 300" role="img" aria-label="Finance operations illustration">
  <defs>
    <linearGradient id="a" x1="0" x2="1" y1="0" y2="1">
      <stop offset="0" stop-color="#111827"/>
      <stop offset="1" stop-color="#0f766e"/>
    </linearGradient>
  </defs>
  <rect width="520" height="300" rx="26" fill="url(#a)"/>
  <rect x="54" y="62" width="180" height="172" rx="18" fill="#ffffff"/>
  <rect x="82" y="92" width="90" height="12" rx="6" fill="#0f766e"/>
  <rect x="82" y="126" width="124" height="10" rx="5" fill="#ccfbf1"/>
  <rect x="82" y="154" width="104" height="10" rx="5" fill="#ccfbf1"/>
  <rect x="82" y="182" width="132" height="10" rx="5" fill="#ccfbf1"/>
  <rect x="272" y="74" width="162" height="72" rx="18" fill="#facc15"/>
  <rect x="292" y="101" width="68" height="12" rx="6" fill="#111827"/>
  <rect x="272" y="166" width="162" height="72" rx="18" fill="#ecfeff"/>
  <circle cx="306" cy="202" r="18" fill="#0f766e"/>
  <path d="M334 204h70" stroke="#0f766e" stroke-width="10" stroke-linecap="round"/>
  <path d="M386 74v164" stroke="#ffffff" stroke-width="2" opacity=".2"/>
  <circle cx="456" cy="56" r="42" fill="#ffffff" opacity=".12"/>
</svg>
