<svg xmlns="http://www.w3.org/2000/svg" viewBox="0 0 228 72" role="img" aria-label="Payrolla"><defs><linearGradient id="a" x1="11" y1="119" x2="110" y2="20" gradientUnits="userSpaceOnUse"><stop offset="0" stop-color="#0D4D4D"/><stop offset="1" stop-color="#17C3B2"/></linearGradient><linearGradient id="b" x1="20" y1="82" x2="20" y2="128" gradientUnits="userSpaceOnUse"><stop offset="0" stop-color="#063737"/><stop offset="1" stop-color="#0D4D4D"/></linearGradient></defs><g transform="translate(1.6 8.2)scale(.4)"><path d="M23 82C21 100 17 116 11 128C22 117 32 109 40 92Z" fill="url(#b)"/><path fill-rule="evenodd" fill="url(#a)" d="M32 11H62A48 48 0 0 1 62 107H44A3 3 0 0 0 41 110A9 9 0 0 1 23 110V20A9 9 0 0 1 32 11ZM53 29H62A30 30 0 0 1 62 89H53A12 12 0 0 1 41 77V41A12 12 0 0 1 53 29Z"/></g><text x="58" y="51" font-family="Satoshi,'Plus Jakarta Sans',Inter,'SF Pro Display',system-ui,sans-serif" font-size="42" font-weight="700" letter-spacing="-1" fill="#0D4D4D">Payrolla</text></svg>
