<svg xmlns="http://www.w3.org/2000/svg" width="520" height="300" viewBox="0 0 520 300" role="img" aria-label="Payroll dashboard illustration">
  <defs>
    <linearGradient id="bg" x1="0" x2="1" y1="0" y2="1">
      <stop offset="0" stop-color="#0f766e"/>
      <stop offset="1" stop-color="#16a34a"/>
    </linearGradient>
    <linearGradient id="gold" x1="0" x2="1">
      <stop offset="0" stop-color="#17c3b2"/>
      <stop offset="1" stop-color="#0fa697"/>
    </linearGradient>
  </defs>
  <rect width="520" height="300" rx="26" fill="url(#bg)"/>
  <circle cx="430" cy="44" r="70" fill="#ffffff" opacity=".12"/>
  <circle cx="74" cy="244" r="92" fill="#042f2e" opacity=".22"/>
  <rect x="54" y="54" width="250" height="176" rx="18" fill="#ffffff"/>
  <rect x="78" y="82" width="92" height="16" rx="8" fill="#134e4a"/>
  <rect x="78" y="118" width="190" height="12" rx="6" fill="#d1fae5"/>
  <rect x="78" y="146" width="160" height="12" rx="6" fill="#d1fae5"/>
  <rect x="78" y="174" width="120" height="12" rx="6" fill="#d1fae5"/>
  <rect x="226" y="78" width="44" height="44" rx="12" fill="url(#gold)"/>
  <text x="238" y="107" font-family="Arial, sans-serif" font-size="20" font-weight="700" fill="#1f2937">CN</text>
  <rect x="330" y="80" width="120" height="132" rx="18" fill="#ecfeff"/>
  <path d="M358 170c14-38 34-48 56-78" fill="none" stroke="#0f766e" stroke-width="12" stroke-linecap="round"/>
  <circle cx="358" cy="170" r="14" fill="#17c3b2"/>
  <circle cx="414" cy="92" r="14" fill="#17c3b2"/>
  <rect x="330" y="226" width="134" height="18" rx="9" fill="#ffffff" opacity=".75"/>
  <rect x="54" y="246" width="210" height="16" rx="8" fill="#ffffff" opacity=".45"/>
</svg>
